<svg width="12" height="16" viewBox="0 0 12 16" fill="none" xmlns="http://www.w3.org/2000/svg">
<path fill-rule="evenodd" clip-rule="evenodd" d="M0 0H12V16H0V0ZM1 3C1 2.44772 1.44772 2 2 2H10C10.5523 2 11 2.44772 11 3C11 3.55228 10.5523 4 10 4H2C1.44772 4 1 3.55228 1 3ZM2 6C1.44772 6 1 6.44772 1 7C1 7.55228 1.44772 8 2 8C2.55228 8 3 7.55228 3 7C3 6.44772 2.55228 6 2 6ZM1 13C1 12.4477 1.44772 12 2 12C2.55228 12 3 12.4477 3 13C3 13.5523 2.55228 14 2 14C1.44772 14 1 13.5523 1 13ZM2 9C1.44772 9 1 9.44771 1 10C1 10.5523 1.44772 11 2 11C2.55228 11 3 10.5523 3 10C3 9.44771 2.55228 9 2 9ZM5 7C5 6.44772 5.44772 6 6 6C6.55228 6 7 6.44772 7 7C7 7.55228 6.55228 8 6 8C5.44772 8 5 7.55228 5 7ZM6 12C5.44772 12 5 12.4477 5 13C5 13.5523 5.44772 14 6 14C6.55228 14 7 13.5523 7 13C7 12.4477 6.55228 12 6 12ZM5 10C5 9.44771 5.44772 9 6 9C6.55228 9 7 9.44771 7 10C7 10.5523 6.55228 11 6 11C5.44772 11 5 10.5523 5 10ZM10 6C9.44771 6 9 6.44772 9 7C9 7.55228 9.44771 8 10 8C10.5523 8 11 7.55228 11 7C11 6.44772 10.5523 6 10 6ZM9 13C9 12.4477 9.44771 12 10 12C10.5523 12 11 12.4477 11 13C11 13.5523 10.5523 14 10 14C9.44771 14 9 13.5523 9 13ZM10 9C9.44771 9 9 9.44771 9 10C9 10.5523 9.44771 11 10 11C10.5523 11 11 10.5523 11 10C11 9.44771 10.5523 9 10 9Z" fill="white"/>
</svg>
